<svg xmlns="http://www.w3.org/2000/svg" version="1.1" xmlns:xlink="http://www.w3.org/1999/xlink" width="1000" height="1000"><g clip-path="url(#SvgjsClipPath1639)"><rect width="1000" height="1000" fill="#f0efef"></rect><g transform="matrix(1.953125,0,0,1.953125,0,0)"><svg xmlns="http://www.w3.org/2000/svg" version="1.1" xmlns:xlink="http://www.w3.org/1999/xlink" width="512" height="512"><svg version="1.1" viewBox="0.0 0.0 512.0 512.0" fill="none" stroke="none" stroke-linecap="square" stroke-miterlimit="10" xmlns:xlink="http://www.w3.org/1999/xlink" xmlns="http://www.w3.org/2000/svg"><clipPath id="p.0"><path d="m0 0l512.0 0l0 512.0l-512.0 0l0 -512.0z" clip-rule="nonzero"></path></clipPath><g clip-path="url(#p.0)"><path fill="#28262a" d="m0 0l512.0 0l0 512.0l-512.0 0z" fill-rule="evenodd"></path><path fill="#000000" fill-opacity="0.0" d="m31.622047 24.650919l448.75592 0l0 416.189l-448.75592 0z" fill-rule="evenodd"></path><path fill="#f0efef" d="m157.15315 353.6509l0 -238.60938l45.734375 0l0 238.60938l-45.734375 0zm91.31236 -172.84373l42.640625 0l0 25.390625q8.296875 -13.03125 22.453125 -21.15625q14.171875 -8.140625 31.421875 -8.140625q30.109375 0 51.09375 23.59375q21.0 23.59375 21.0 65.749985q0 43.296875 -21.15625 67.3125q-21.15625 24.0 -51.265625 24.0q-14.328125 0 -25.96875 -5.6875q-11.625 -5.703125 -24.484375 -19.546875l0 87.078125l-45.734375 0l0 -238.59373zm45.25 83.48436q0 29.140625 11.546875 43.0625q11.5625 13.90625 28.15625 13.90625q15.953125 0 26.53125 -12.765625q10.578125 -12.78125 10.578125 -41.921875q0 -27.17186 -10.90625 -40.35936q-10.90625 -13.1875 -27.015625 -13.1875q-16.765625 0 -27.828125 12.9375q-11.0625 12.9375 -11.0625 38.32811z" fill-rule="nonzero"></path></g></svg></svg></g></g><defs><clipPath id="SvgjsClipPath1639"><rect width="1000" height="1000" x="0" y="0" rx="100" ry="100"></rect></clipPath></defs></svg>